<svg width="430" height="80" viewBox="0 0 430 80" fill="none" xmlns="http://www.w3.org/2000/svg">
<g clip-path="url(#clip0_15_11)">
<path d="M24.2065 59V30.6364H27.5119V59H24.2065ZM25.8869 25.7614C25.2098 25.7614 24.6312 25.5336 24.1511 25.0781C23.671 24.6103 23.4309 24.0502 23.4309 23.3977C23.4309 22.7453 23.671 22.1913 24.1511 21.7358C24.6312 21.268 25.2098 21.0341 25.8869 21.0341C26.564 21.0341 27.1426 21.268 27.6227 21.7358C28.1028 22.1913 28.3429 22.7453 28.3429 23.3977C28.3429 24.0502 28.1028 24.6103 27.6227 25.0781C27.1426 25.5336 26.564 25.7614 25.8869 25.7614ZM47.2289 59.5909C44.7791 59.5909 42.6124 58.9692 40.7289 57.7259C38.8577 56.4825 37.3927 54.7652 36.334 52.5739C35.2753 50.3703 34.7459 47.8281 34.7459 44.9474C34.7459 42.0421 35.2753 39.4877 36.334 37.2841C37.3927 35.0682 38.8577 33.3447 40.7289 32.1136C42.6124 30.8703 44.7791 30.2486 47.2289 30.2486C49.6787 30.2486 51.8392 30.8703 53.7104 32.1136C55.5816 33.357 57.0466 35.0805 58.1053 37.2841C59.1763 39.4877 59.7118 42.0421 59.7118 44.9474C59.7118 47.8281 59.1825 50.3703 58.1238 52.5739C57.065 54.7652 55.5939 56.4825 53.7104 57.7259C51.8392 58.9692 49.6787 59.5909 47.2289 59.5909ZM47.2289 56.581C49.1986 56.581 50.8667 56.0516 52.2331 54.9929C53.5996 53.9342 54.6337 52.5246 55.3354 50.7642C56.0494 49.0038 56.4064 47.0649 56.4064 44.9474C56.4064 42.83 56.0494 40.8849 55.3354 39.1122C54.6337 37.3395 53.5996 35.9176 52.2331 34.8466C50.8667 33.7756 49.1986 33.2401 47.2289 33.2401C45.2715 33.2401 43.6034 33.7756 42.2246 34.8466C40.8581 35.9176 39.8179 37.3395 39.1039 39.1122C38.4022 40.8849 38.0513 42.83 38.0513 44.9474C38.0513 47.0649 38.4022 49.0038 39.1039 50.7642C39.8179 52.5246 40.8581 53.9342 42.2246 54.9929C43.5911 56.0516 45.2592 56.581 47.2289 56.581ZM66.9274 59V30.6364H70.122V34.9943H70.4174C70.9837 33.5294 71.9255 32.3783 73.2427 31.5412C74.5723 30.6918 76.1665 30.267 78.0254 30.267C79.9828 30.267 81.5893 30.7287 82.845 31.652C84.113 32.563 85.0609 33.8187 85.6887 35.419H85.9288C86.569 33.8433 87.6092 32.5937 89.0495 31.6705C90.5022 30.7348 92.2626 30.267 94.3308 30.267C96.9653 30.267 99.0458 31.098 100.572 32.7599C102.099 34.4096 102.862 36.8224 102.862 39.9986V59H99.5751V39.9986C99.5751 37.758 99.0027 36.0777 97.8578 34.9574C96.7129 33.8371 95.2048 33.277 93.3336 33.277C91.167 33.277 89.4989 33.9418 88.3294 35.2713C87.1599 36.6009 86.5751 38.2874 86.5751 40.331V59H83.2143V39.7031C83.2143 37.7827 82.6788 36.2315 81.6078 35.0497C80.5368 33.8679 79.0287 33.277 77.0836 33.277C75.7787 33.277 74.603 33.5971 73.5566 34.2372C72.5225 34.8774 71.7039 35.7699 71.1007 36.9148C70.5098 38.0473 70.2143 39.3523 70.2143 40.8295V59H66.9274ZM122.644 59.5909C120.108 59.5909 117.898 58.9569 116.014 57.6889C114.143 56.4209 112.691 54.6851 111.656 52.4815C110.622 50.2779 110.105 47.7666 110.105 44.9474C110.105 42.1037 110.628 39.5739 111.675 37.358C112.734 35.142 114.199 33.4062 116.07 32.1506C117.941 30.8826 120.114 30.2486 122.588 30.2486C124.484 30.2486 126.201 30.6179 127.74 31.3565C129.279 32.0829 130.547 33.1108 131.544 34.4403C132.554 35.7576 133.188 37.2964 133.446 39.0568H130.122C129.778 37.4564 128.947 36.09 127.629 34.9574C126.325 33.8125 124.663 33.2401 122.644 33.2401C120.834 33.2401 119.234 33.7325 117.843 34.7173C116.451 35.6899 115.362 37.0502 114.574 38.7983C113.798 40.5341 113.411 42.5469 113.411 44.8366C113.411 47.1387 113.792 49.1761 114.556 50.9489C115.319 52.7093 116.39 54.0881 117.769 55.0852C119.16 56.0824 120.785 56.581 122.644 56.581C123.899 56.581 125.044 56.3471 126.078 55.8793C127.125 55.3991 127.999 54.7221 128.7 53.848C129.414 52.974 129.895 51.9337 130.141 50.7273H133.465C133.218 52.4384 132.609 53.965 131.637 55.3068C130.676 56.6364 129.427 57.6828 127.888 58.446C126.361 59.2093 124.613 59.5909 122.644 59.5909ZM155.134 59V30.6364H158.329V34.9943H158.569C159.135 33.5663 160.12 32.4152 161.524 31.5412C162.939 30.6548 164.54 30.2116 166.325 30.2116C166.596 30.2116 166.897 30.2178 167.23 30.2301C167.562 30.2424 167.839 30.2547 168.061 30.267V33.6094C167.913 33.5848 167.654 33.5478 167.285 33.4986C166.916 33.4493 166.516 33.4247 166.085 33.4247C164.607 33.4247 163.29 33.7386 162.133 34.3665C160.988 34.982 160.083 35.8376 159.419 36.9332C158.754 38.0289 158.421 39.2784 158.421 40.6818V59H155.134ZM183.83 59.5909C181.381 59.5909 179.214 58.9692 177.33 57.7259C175.459 56.4825 173.994 54.7652 172.936 52.5739C171.877 50.3703 171.347 47.8281 171.347 44.9474C171.347 42.0421 171.877 39.4877 172.936 37.2841C173.994 35.0682 175.459 33.3447 177.33 32.1136C179.214 30.8703 181.381 30.2486 183.83 30.2486C186.28 30.2486 188.441 30.8703 190.312 32.1136C192.183 33.357 193.648 35.0805 194.707 37.2841C195.778 39.4877 196.313 42.0421 196.313 44.9474C196.313 47.8281 195.784 50.3703 194.725 52.5739C193.667 54.7652 192.195 56.4825 190.312 57.7259C188.441 58.9692 186.28 59.5909 183.83 59.5909ZM183.83 56.581C185.8 56.581 187.468 56.0516 188.835 54.9929C190.201 53.9342 191.235 52.5246 191.937 50.7642C192.651 49.0038 193.008 47.0649 193.008 44.9474C193.008 42.83 192.651 40.8849 191.937 39.1122C191.235 37.3395 190.201 35.9176 188.835 34.8466C187.468 33.7756 185.8 33.2401 183.83 33.2401C181.873 33.2401 180.205 33.7756 178.826 34.8466C177.46 35.9176 176.419 37.3395 175.705 39.1122C175.004 40.8849 174.653 42.83 174.653 44.9474C174.653 47.0649 175.004 49.0038 175.705 50.7642C176.419 52.5246 177.46 53.9342 178.826 54.9929C180.193 56.0516 181.861 56.581 183.83 56.581ZM221.552 48.1605V30.6364H224.839V59H221.552V54.2912H221.293C220.628 55.7438 219.576 56.9564 218.135 57.929C216.695 58.8892 214.935 59.3693 212.854 59.3693C211.045 59.3693 209.438 58.9754 208.035 58.1875C206.631 57.3873 205.529 56.2178 204.729 54.679C203.929 53.1402 203.529 51.2505 203.529 49.0099V30.6364H206.816V48.8068C206.816 51.0227 207.468 52.8078 208.773 54.1619C210.078 55.5038 211.752 56.1747 213.796 56.1747C215.076 56.1747 216.307 55.867 217.489 55.2514C218.671 54.6359 219.644 53.7372 220.407 52.5554C221.17 51.3613 221.552 49.8963 221.552 48.1605ZM244.713 30.6364V33.4986H231.177V30.6364H244.713ZM235.406 23.8409H238.711V51.5952C238.711 52.777 238.914 53.7064 239.32 54.3835C239.727 55.0483 240.256 55.5223 240.909 55.8054C241.561 56.0762 242.257 56.2116 242.995 56.2116C243.426 56.2116 243.795 56.187 244.103 56.1378C244.411 56.0762 244.682 56.0147 244.916 55.9531L245.617 58.9261C245.297 59.0492 244.903 59.16 244.436 59.2585C243.968 59.3693 243.389 59.4247 242.7 59.4247C241.493 59.4247 240.33 59.16 239.21 58.6307C238.102 58.1013 237.191 57.3134 236.477 56.267C235.763 55.2206 235.406 53.9219 235.406 52.3707V23.8409ZM263.34 59.5909C260.693 59.5909 258.403 58.9754 256.471 57.7443C254.538 56.5009 253.042 54.7836 251.983 52.5923C250.937 50.3887 250.414 47.8527 250.414 44.9844C250.414 42.1283 250.937 39.5923 251.983 37.3764C253.042 35.1482 254.501 33.4062 256.36 32.1506C258.231 30.8826 260.392 30.2486 262.841 30.2486C264.38 30.2486 265.864 30.5317 267.292 31.098C268.72 31.652 270 32.5076 271.133 33.6648C272.278 34.8097 273.182 36.2562 273.847 38.0043C274.512 39.7401 274.844 41.7959 274.844 44.1719V45.7969H252.685V42.8977H271.483C271.483 41.0758 271.114 39.4384 270.376 37.9858C269.649 36.5208 268.634 35.3636 267.329 34.5142C266.036 33.6648 264.54 33.2401 262.841 33.2401C261.044 33.2401 259.462 33.7202 258.096 34.6804C256.729 35.6406 255.658 36.9086 254.883 38.4844C254.119 40.0601 253.732 41.7836 253.719 43.6548V45.3906C253.719 47.6435 254.107 49.6132 254.883 51.2997C255.671 52.974 256.785 54.2727 258.225 55.196C259.665 56.1193 261.37 56.581 263.34 56.581C264.682 56.581 265.858 56.3717 266.867 55.9531C267.889 55.5346 268.744 54.9744 269.434 54.2727C270.135 53.5587 270.665 52.777 271.022 51.9276L274.143 52.9432C273.712 54.1373 273.004 55.2391 272.019 56.2486C271.046 57.258 269.828 58.0705 268.363 58.6861C266.91 59.2893 265.236 59.5909 263.34 59.5909ZM282.088 59V30.6364H285.282V34.9943H285.578C286.144 33.5294 287.086 32.3783 288.403 31.5412C289.732 30.6918 291.327 30.267 293.186 30.267C295.143 30.267 296.749 30.7287 298.005 31.652C299.273 32.563 300.221 33.8187 300.849 35.419H301.089C301.729 33.8433 302.769 32.5937 304.21 31.6705C305.662 30.7348 307.423 30.267 309.491 30.267C312.125 30.267 314.206 31.098 315.732 32.7599C317.259 34.4096 318.022 36.8224 318.022 39.9986V59H314.735V39.9986C314.735 37.758 314.163 36.0777 313.018 34.9574C311.873 33.8371 310.365 33.277 308.494 33.277C306.327 33.277 304.659 33.9418 303.49 35.2713C302.32 36.6009 301.735 38.2874 301.735 40.331V59H298.374V39.7031C298.374 37.7827 297.839 36.2315 296.768 35.0497C295.697 33.8679 294.189 33.277 292.244 33.277C290.939 33.277 289.763 33.5971 288.717 34.2372C287.683 34.8774 286.864 35.7699 286.261 36.9148C285.67 38.0473 285.374 39.3523 285.374 40.8295V59H282.088ZM334.646 59.6463C332.935 59.6463 331.372 59.3139 329.956 58.6491C328.54 57.9721 327.414 56.9995 326.577 55.7315C325.739 54.4512 325.321 52.9001 325.321 51.0781C325.321 49.6747 325.586 48.4929 326.115 47.5327C326.644 46.5724 327.395 45.7846 328.368 45.169C329.34 44.5535 330.491 44.0672 331.821 43.7102C333.15 43.3532 334.615 43.0762 336.216 42.8793C337.804 42.6823 339.146 42.5099 340.241 42.3622C341.349 42.2145 342.193 41.9806 342.771 41.6605C343.35 41.3404 343.639 40.8234 343.639 40.1094V39.4446C343.639 37.5118 343.06 35.9915 341.903 34.8835C340.758 33.7633 339.109 33.2031 336.954 33.2031C334.911 33.2031 333.243 33.6525 331.95 34.5511C330.67 35.4498 329.771 36.5085 329.254 37.7273L326.133 36.6009C326.773 35.0497 327.66 33.8125 328.792 32.8892C329.925 31.9536 331.193 31.2827 332.596 30.8764C334 30.4579 335.422 30.2486 336.862 30.2486C337.945 30.2486 339.072 30.3902 340.241 30.6733C341.423 30.9564 342.519 31.4489 343.528 32.1506C344.538 32.84 345.356 33.8063 345.984 35.0497C346.612 36.2808 346.926 37.8442 346.926 39.7401V59H343.639V54.5128H343.436C343.042 55.3499 342.457 56.1624 341.682 56.9503C340.906 57.7382 339.934 58.3845 338.764 58.8892C337.595 59.3939 336.222 59.6463 334.646 59.6463ZM335.089 56.6364C336.837 56.6364 338.352 56.2486 339.632 55.473C340.912 54.6974 341.897 53.6695 342.586 52.3892C343.288 51.0966 343.639 49.6747 343.639 48.1236V44.0241C343.393 44.258 342.98 44.4673 342.402 44.652C341.836 44.8366 341.177 45.0028 340.426 45.1506C339.687 45.286 338.949 45.4029 338.21 45.5014C337.471 45.5999 336.807 45.6861 336.216 45.7599C334.615 45.9569 333.249 46.2647 332.116 46.6832C330.984 47.1018 330.116 47.6804 329.513 48.419C328.909 49.1454 328.608 50.081 328.608 51.2259C328.608 52.9493 329.223 54.285 330.454 55.233C331.685 56.1686 333.23 56.6364 335.089 56.6364ZM355.67 69.6364V30.6364H358.864V36.0469H359.252C359.646 35.1974 360.188 34.3295 360.877 33.4432C361.566 32.5445 362.477 31.7874 363.61 31.1719C364.755 30.5563 366.195 30.2486 367.931 30.2486C370.27 30.2486 372.314 30.8641 374.062 32.0952C375.822 33.3139 377.189 35.0251 378.161 37.2287C379.146 39.42 379.638 41.9744 379.638 44.892C379.638 47.822 379.146 50.3887 378.161 52.5923C377.189 54.7959 375.822 56.5133 374.062 57.7443C372.314 58.9754 370.282 59.5909 367.968 59.5909C366.257 59.5909 364.823 59.2831 363.665 58.6676C362.52 58.0521 361.591 57.295 360.877 56.3963C360.175 55.4853 359.634 54.599 359.252 53.7372H358.956V69.6364H355.67ZM358.92 44.8366C358.92 47.1264 359.258 49.1577 359.935 50.9304C360.625 52.6908 361.609 54.0758 362.89 55.0852C364.182 56.0824 365.746 56.581 367.58 56.581C369.464 56.581 371.052 56.0639 372.344 55.0298C373.649 53.9834 374.64 52.5739 375.317 50.8011C376.007 49.0284 376.351 47.0402 376.351 44.8366C376.351 42.6577 376.013 40.6941 375.336 38.946C374.671 37.1979 373.686 35.813 372.381 34.7912C371.076 33.7571 369.476 33.2401 367.58 33.2401C365.733 33.2401 364.164 33.7386 362.871 34.7358C361.579 35.7206 360.594 37.0871 359.917 38.8352C359.252 40.571 358.92 42.5715 358.92 44.8366ZM405.906 36.8594L402.896 37.7088C402.601 36.8594 402.182 36.09 401.64 35.4006C401.099 34.7112 400.391 34.1634 399.517 33.7571C398.655 33.3509 397.584 33.1477 396.304 33.1477C394.383 33.1477 392.808 33.6032 391.577 34.5142C390.345 35.4252 389.73 36.6009 389.73 38.0412C389.73 39.2599 390.148 40.2509 390.986 41.0142C391.835 41.7652 393.14 42.3622 394.9 42.8054L399.184 43.858C401.56 44.4366 403.339 45.3537 404.521 46.6094C405.715 47.8651 406.312 49.4408 406.312 51.3366C406.312 52.937 405.869 54.3589 404.983 55.6023C404.096 56.8456 402.859 57.8243 401.271 58.5384C399.695 59.2401 397.867 59.5909 395.787 59.5909C393.017 59.5909 390.733 58.9692 388.936 57.7259C387.139 56.4702 385.988 54.6605 385.483 52.2969L388.64 51.5213C389.047 53.2079 389.841 54.482 391.023 55.3438C392.217 56.2055 393.786 56.6364 395.731 56.6364C397.91 56.6364 399.652 56.1501 400.957 55.1776C402.262 54.1927 402.915 52.9616 402.915 51.4844C402.915 50.3395 402.533 49.3793 401.77 48.6037C401.006 47.8158 399.849 47.2372 398.298 46.8679L393.663 45.7599C391.201 45.169 389.379 44.2334 388.197 42.9531C387.015 41.6728 386.425 40.0848 386.425 38.1889C386.425 36.6255 386.849 35.2528 387.699 34.071C388.548 32.8769 389.718 31.9413 391.207 31.2642C392.697 30.5871 394.396 30.2486 396.304 30.2486C398.901 30.2486 400.976 30.8395 402.527 32.0213C404.09 33.1908 405.217 34.8035 405.906 36.8594Z" fill="#F5F5F5"/>
</g>
<defs>
<clipPath id="clip0_15_11">
<rect width="430" height="80" fill="white"/>
</clipPath>
</defs>
</svg>
